<mxfile host="app.diagrams.net" modified="2023-05-12T08:55:21.072Z" agent="Mozilla/5.0 (Windows NT 10.0; Win64; x64) AppleWebKit/537.36 (KHTML, like Gecko) Chrome/112.0.0.0 Safari/537.36" etag="SbCKbWqK_hwu5IhUF6ja" version="21.1.7" type="github">
  <diagram name="Page-1" id="fnZBR6HFU-emUqoa6uUA">
    <mxGraphModel dx="1723" dy="747" grid="1" gridSize="10" guides="1" tooltips="1" connect="1" arrows="1" fold="1" page="1" pageScale="1" pageWidth="827" pageHeight="1169" math="0" shadow="0">
      <root>
        <mxCell id="0" />
        <mxCell id="1" parent="0" />
        <mxCell id="6A2IYCNapduipn6G08Lb-119" value="" style="rounded=0;whiteSpace=wrap;html=1;" vertex="1" parent="1">
          <mxGeometry x="310" y="40" width="660" height="540" as="geometry" />
        </mxCell>
        <mxCell id="6A2IYCNapduipn6G08Lb-1" value="" style="rounded=0;whiteSpace=wrap;html=1;" vertex="1" parent="1">
          <mxGeometry x="90" y="60" width="120" height="510" as="geometry" />
        </mxCell>
        <mxCell id="6A2IYCNapduipn6G08Lb-3" value="基础数据配置" style="rounded=1;whiteSpace=wrap;html=1;fillColor=#e1d5e7;strokeColor=#9673a6;" vertex="1" parent="1">
          <mxGeometry x="105" y="70" width="90" height="30" as="geometry" />
        </mxCell>
        <mxCell id="6A2IYCNapduipn6G08Lb-4" value="实体管理" style="rounded=1;whiteSpace=wrap;html=1;fillColor=#fff2cc;strokeColor=#d6b656;" vertex="1" parent="1">
          <mxGeometry x="105" y="110" width="95" height="20" as="geometry" />
        </mxCell>
        <mxCell id="6A2IYCNapduipn6G08Lb-5" value="任务和步骤状态定义" style="rounded=1;whiteSpace=wrap;html=1;fillColor=#fff2cc;strokeColor=#d6b656;" vertex="1" parent="1">
          <mxGeometry x="105" y="140" width="95" height="30" as="geometry" />
        </mxCell>
        <mxCell id="6A2IYCNapduipn6G08Lb-9" value="操作管理" style="rounded=1;whiteSpace=wrap;html=1;fillColor=#e1d5e7;strokeColor=#9673a6;" vertex="1" parent="1">
          <mxGeometry x="105" y="390" width="95" height="30" as="geometry" />
        </mxCell>
        <mxCell id="6A2IYCNapduipn6G08Lb-10" value="工艺管理" style="rounded=1;whiteSpace=wrap;html=1;fillColor=#fff2cc;strokeColor=#d6b656;" vertex="1" parent="1">
          <mxGeometry x="105" y="430" width="95" height="20" as="geometry" />
        </mxCell>
        <mxCell id="6A2IYCNapduipn6G08Lb-11" value="工序管理" style="rounded=1;whiteSpace=wrap;html=1;fillColor=#fff2cc;strokeColor=#d6b656;" vertex="1" parent="1">
          <mxGeometry x="105" y="470" width="95" height="20" as="geometry" />
        </mxCell>
        <mxCell id="6A2IYCNapduipn6G08Lb-12" value="" style="endArrow=none;dashed=1;html=1;dashPattern=1 3;strokeWidth=2;rounded=0;" edge="1" parent="1">
          <mxGeometry width="50" height="50" relative="1" as="geometry">
            <mxPoint x="90" y="194" as="sourcePoint" />
            <mxPoint x="210" y="194" as="targetPoint" />
          </mxGeometry>
        </mxCell>
        <mxCell id="6A2IYCNapduipn6G08Lb-15" value="" style="shape=flexArrow;endArrow=classic;html=1;rounded=0;entryX=0.002;entryY=0.294;entryDx=0;entryDy=0;entryPerimeter=0;fillColor=#e1d5e7;strokeColor=#9673a6;" edge="1" parent="1">
          <mxGeometry width="50" height="50" relative="1" as="geometry">
            <mxPoint x="210" y="160" as="sourcePoint" />
            <mxPoint x="290.8800000000001" y="161.14" as="targetPoint" />
          </mxGeometry>
        </mxCell>
        <mxCell id="6A2IYCNapduipn6G08Lb-16" value="" style="rounded=0;whiteSpace=wrap;html=1;" vertex="1" parent="1">
          <mxGeometry x="320" y="70" width="230" height="150" as="geometry" />
        </mxCell>
        <mxCell id="6A2IYCNapduipn6G08Lb-17" value="工单管理" style="rounded=1;whiteSpace=wrap;html=1;fillColor=#e1d5e7;strokeColor=#9673a6;" vertex="1" parent="1">
          <mxGeometry x="340" y="80" width="180" height="30" as="geometry" />
        </mxCell>
        <mxCell id="6A2IYCNapduipn6G08Lb-18" value="工单路线" style="rounded=1;whiteSpace=wrap;html=1;fillColor=#fff2cc;strokeColor=#d6b656;" vertex="1" parent="1">
          <mxGeometry x="342.5" y="120" width="87.5" height="20" as="geometry" />
        </mxCell>
        <mxCell id="6A2IYCNapduipn6G08Lb-19" value="工单生产" style="rounded=1;whiteSpace=wrap;html=1;fillColor=#fff2cc;strokeColor=#d6b656;" vertex="1" parent="1">
          <mxGeometry x="342.5" y="150" width="87.5" height="20" as="geometry" />
        </mxCell>
        <mxCell id="6A2IYCNapduipn6G08Lb-20" value="工单下发" style="rounded=1;whiteSpace=wrap;html=1;fillColor=#fff2cc;strokeColor=#d6b656;" vertex="1" parent="1">
          <mxGeometry x="437.5" y="120" width="87.5" height="20" as="geometry" />
        </mxCell>
        <mxCell id="6A2IYCNapduipn6G08Lb-21" value="工单关闭" style="rounded=1;whiteSpace=wrap;html=1;fillColor=#fff2cc;strokeColor=#d6b656;" vertex="1" parent="1">
          <mxGeometry x="440" y="150" width="85" height="20" as="geometry" />
        </mxCell>
        <mxCell id="6A2IYCNapduipn6G08Lb-22" value="工单数据维护" style="rounded=1;whiteSpace=wrap;html=1;fillColor=#fff2cc;strokeColor=#d6b656;" vertex="1" parent="1">
          <mxGeometry x="345" y="180" width="85" height="20" as="geometry" />
        </mxCell>
        <mxCell id="6A2IYCNapduipn6G08Lb-26" value="物料管理" style="rounded=1;whiteSpace=wrap;html=1;fillColor=#e1d5e7;strokeColor=#9673a6;" vertex="1" parent="1">
          <mxGeometry x="105" y="200" width="87.5" height="30" as="geometry" />
        </mxCell>
        <mxCell id="6A2IYCNapduipn6G08Lb-27" value="物料类别" style="rounded=1;whiteSpace=wrap;html=1;fillColor=#fff2cc;strokeColor=#d6b656;" vertex="1" parent="1">
          <mxGeometry x="110" y="240" width="80" height="20" as="geometry" />
        </mxCell>
        <mxCell id="6A2IYCNapduipn6G08Lb-29" value="物料单位" style="rounded=1;whiteSpace=wrap;html=1;fillColor=#fff2cc;strokeColor=#d6b656;" vertex="1" parent="1">
          <mxGeometry x="110" y="270" width="80" height="20" as="geometry" />
        </mxCell>
        <mxCell id="6A2IYCNapduipn6G08Lb-30" value="物料项" style="rounded=1;whiteSpace=wrap;html=1;fillColor=#fff2cc;strokeColor=#d6b656;" vertex="1" parent="1">
          <mxGeometry x="110" y="330" width="82.5" height="20" as="geometry" />
        </mxCell>
        <mxCell id="6A2IYCNapduipn6G08Lb-31" value="物料清单" style="rounded=1;whiteSpace=wrap;html=1;fillColor=#fff2cc;strokeColor=#d6b656;" vertex="1" parent="1">
          <mxGeometry x="108.75" y="300" width="80" height="20" as="geometry" />
        </mxCell>
        <mxCell id="6A2IYCNapduipn6G08Lb-32" value="" style="endArrow=none;dashed=1;html=1;dashPattern=1 3;strokeWidth=2;rounded=0;entryX=1.013;entryY=0.572;entryDx=0;entryDy=0;entryPerimeter=0;" edge="1" parent="1">
          <mxGeometry width="50" height="50" relative="1" as="geometry">
            <mxPoint x="90" y="374" as="sourcePoint" />
            <mxPoint x="211.55999999999995" y="374.44000000000005" as="targetPoint" />
          </mxGeometry>
        </mxCell>
        <mxCell id="6A2IYCNapduipn6G08Lb-33" value="工序路线" style="rounded=1;whiteSpace=wrap;html=1;fillColor=#fff2cc;strokeColor=#d6b656;" vertex="1" parent="1">
          <mxGeometry x="102.5" y="510" width="95" height="20" as="geometry" />
        </mxCell>
        <mxCell id="6A2IYCNapduipn6G08Lb-34" value="" style="rounded=0;whiteSpace=wrap;html=1;" vertex="1" parent="1">
          <mxGeometry x="320" y="333" width="230" height="217" as="geometry" />
        </mxCell>
        <mxCell id="6A2IYCNapduipn6G08Lb-35" value="生产过程管理" style="rounded=1;whiteSpace=wrap;html=1;fillColor=#e1d5e7;strokeColor=#9673a6;" vertex="1" parent="1">
          <mxGeometry x="345" y="350" width="180" height="30" as="geometry" />
        </mxCell>
        <mxCell id="6A2IYCNapduipn6G08Lb-37" value="启动任务" style="rounded=1;whiteSpace=wrap;html=1;fillColor=#fff2cc;strokeColor=#d6b656;" vertex="1" parent="1">
          <mxGeometry x="345" y="400" width="87.5" height="20" as="geometry" />
        </mxCell>
        <mxCell id="6A2IYCNapduipn6G08Lb-38" value="添加产量" style="rounded=1;whiteSpace=wrap;html=1;fillColor=#fff2cc;strokeColor=#d6b656;" vertex="1" parent="1">
          <mxGeometry x="450" y="400" width="87.5" height="20" as="geometry" />
        </mxCell>
        <mxCell id="6A2IYCNapduipn6G08Lb-39" value="结束任务" style="rounded=1;whiteSpace=wrap;html=1;fillColor=#fff2cc;strokeColor=#d6b656;" vertex="1" parent="1">
          <mxGeometry x="345" y="430" width="87.5" height="20" as="geometry" />
        </mxCell>
        <mxCell id="6A2IYCNapduipn6G08Lb-41" value="" style="rounded=0;whiteSpace=wrap;html=1;" vertex="1" parent="1">
          <mxGeometry x="630" y="60" width="310" height="500" as="geometry" />
        </mxCell>
        <mxCell id="6A2IYCNapduipn6G08Lb-42" value="" style="rounded=0;whiteSpace=wrap;html=1;" vertex="1" parent="1">
          <mxGeometry x="660" y="76" width="240" height="254" as="geometry" />
        </mxCell>
        <mxCell id="6A2IYCNapduipn6G08Lb-45" value="质量管理" style="rounded=1;whiteSpace=wrap;html=1;fillColor=#e1d5e7;strokeColor=#9673a6;" vertex="1" parent="1">
          <mxGeometry x="678.75" y="91" width="180" height="30" as="geometry" />
        </mxCell>
        <mxCell id="6A2IYCNapduipn6G08Lb-46" value="样本计划采样频率" style="rounded=1;whiteSpace=wrap;html=1;fillColor=#fff2cc;strokeColor=#d6b656;" vertex="1" parent="1">
          <mxGeometry x="681.25" y="136" width="177.5" height="20" as="geometry" />
        </mxCell>
        <mxCell id="6A2IYCNapduipn6G08Lb-47" value="样本计划采样模板" style="rounded=1;whiteSpace=wrap;html=1;fillColor=#fff2cc;strokeColor=#d6b656;" vertex="1" parent="1">
          <mxGeometry x="681.25" y="173" width="177.5" height="20" as="geometry" />
        </mxCell>
        <mxCell id="6A2IYCNapduipn6G08Lb-48" value="特征定义" style="rounded=1;whiteSpace=wrap;html=1;fillColor=#fff2cc;strokeColor=#d6b656;" vertex="1" parent="1">
          <mxGeometry x="681.25" y="215" width="177.5" height="20" as="geometry" />
        </mxCell>
        <mxCell id="6A2IYCNapduipn6G08Lb-49" value="采样管理" style="rounded=1;whiteSpace=wrap;html=1;fillColor=#fff2cc;strokeColor=#d6b656;" vertex="1" parent="1">
          <mxGeometry x="681.25" y="257" width="177.5" height="20" as="geometry" />
        </mxCell>
        <mxCell id="6A2IYCNapduipn6G08Lb-50" value="" style="rounded=0;whiteSpace=wrap;html=1;" vertex="1" parent="1">
          <mxGeometry x="660" y="420" width="240" height="110" as="geometry" />
        </mxCell>
        <mxCell id="6A2IYCNapduipn6G08Lb-51" value="SPC图展示" style="rounded=1;whiteSpace=wrap;html=1;fillColor=#e1d5e7;strokeColor=#9673a6;" vertex="1" parent="1">
          <mxGeometry x="668.75" y="440" width="180" height="30" as="geometry" />
        </mxCell>
        <mxCell id="6A2IYCNapduipn6G08Lb-52" value="绑定数据源" style="rounded=1;whiteSpace=wrap;html=1;fillColor=#fff2cc;strokeColor=#d6b656;" vertex="1" parent="1">
          <mxGeometry x="681.25" y="290" width="177.5" height="20" as="geometry" />
        </mxCell>
        <mxCell id="6A2IYCNapduipn6G08Lb-53" value="展示图表" style="rounded=1;whiteSpace=wrap;html=1;fillColor=#fff2cc;strokeColor=#d6b656;" vertex="1" parent="1">
          <mxGeometry x="668.75" y="490" width="177.5" height="20" as="geometry" />
        </mxCell>
        <mxCell id="6A2IYCNapduipn6G08Lb-57" value="" style="shape=flexArrow;endArrow=classic;html=1;rounded=0;entryX=0.002;entryY=0.294;entryDx=0;entryDy=0;entryPerimeter=0;fillColor=#e1d5e7;strokeColor=#9673a6;" edge="1" parent="1">
          <mxGeometry width="50" height="50" relative="1" as="geometry">
            <mxPoint x="211" y="414" as="sourcePoint" />
            <mxPoint x="291.8800000000001" y="415.14" as="targetPoint" />
          </mxGeometry>
        </mxCell>
        <mxCell id="6A2IYCNapduipn6G08Lb-58" value="&lt;font style=&quot;font-size: 20px;&quot;&gt;业务架构图&lt;/font&gt;" style="rounded=1;whiteSpace=wrap;html=1;fillColor=#d5e8d4;strokeColor=#82b366;" vertex="1" parent="1">
          <mxGeometry x="91" width="879" height="30" as="geometry" />
        </mxCell>
        <mxCell id="6A2IYCNapduipn6G08Lb-86" value="" style="shape=flexArrow;endArrow=classic;html=1;rounded=0;exitX=0.5;exitY=1;exitDx=0;exitDy=0;" edge="1" parent="1" source="6A2IYCNapduipn6G08Lb-16" target="6A2IYCNapduipn6G08Lb-34">
          <mxGeometry width="50" height="50" relative="1" as="geometry">
            <mxPoint x="430" y="230" as="sourcePoint" />
            <mxPoint x="435" y="270" as="targetPoint" />
          </mxGeometry>
        </mxCell>
        <mxCell id="6A2IYCNapduipn6G08Lb-124" value="" style="shape=flexArrow;endArrow=classic;html=1;rounded=0;exitX=1.003;exitY=0.468;exitDx=0;exitDy=0;exitPerimeter=0;entryX=0;entryY=0.75;entryDx=0;entryDy=0;" edge="1" parent="1" source="6A2IYCNapduipn6G08Lb-34" target="6A2IYCNapduipn6G08Lb-41">
          <mxGeometry width="50" height="50" relative="1" as="geometry">
            <mxPoint x="630" y="420" as="sourcePoint" />
            <mxPoint x="680" y="370" as="targetPoint" />
          </mxGeometry>
        </mxCell>
        <mxCell id="6A2IYCNapduipn6G08Lb-132" value="" style="shape=flexArrow;endArrow=classic;html=1;rounded=0;exitX=0.5;exitY=1;exitDx=0;exitDy=0;entryX=0.5;entryY=0;entryDx=0;entryDy=0;" edge="1" parent="1" target="6A2IYCNapduipn6G08Lb-50">
          <mxGeometry width="50" height="50" relative="1" as="geometry">
            <mxPoint x="779.29" y="333" as="sourcePoint" />
            <mxPoint x="779.29" y="433" as="targetPoint" />
          </mxGeometry>
        </mxCell>
      </root>
    </mxGraphModel>
  </diagram>
</mxfile>
